<svg xmlns="http://www.w3.org/2000/svg" viewBox="0 0 132.292 132.292"><defs><path id="c" d="M47.703 93.916h386.099v257.151H47.703z"/><path id="b" d="M232.554 155.781h290.692v310.817H232.554z"/><path id="a" d="M115.532 81.99h533.681v483.742H115.532z"/></defs><g stroke="#363131" stroke-dasharray="1.37594677,.22932446" stroke-width=".229" aria-label="TR" font-family="Lucida Handwriting" font-size="40.388" style="line-height:1.25"><g fill="#363131" aria-label="TR" style="-inkscape-font-specification:'Lucida Handwriting, Normal';white-space:pre;shape-inside:url(#c)" transform="matrix(2.35234 0 0 2.26352 -149.031 -182.315)"><path d="M86.706 95.65l-4.437 22.264q-.375 1.854-.375 2.425 0 .553.257 1.184-2.031 1.005-3.649 1.005-1.025 0-1.025-.828 0-.414.394-2.445l4.694-23.606h-2.741q-4.674 0-8.066.888.65-2.623 1.755-3.274 1.105-.65 4.832-.65h13.35q5.384 0 7.12-3.885.69 1.163.69 1.873 0 2.564-3.175 4.122-1.913.926-7.257.926z"/><path d="M78.683 109.135q-.809-.927-.809-2.208 0-3.274 5.542-6.114 5.56-2.84 11.91-2.84 9.782 0 9.782 6.232 0 3.017-2.11 5.147-2.09 2.11-7.316 4.398 4.713 10.748 8.124 10.748 1.795 0 3.846-2.525.099.493.099.69 0 1.657-1.953 3.452-1.952 1.774-3.766 1.774-4.615 0-9.84-12.581-1.046.296-1.894.296-.414 0-.77-.158.73-3.727 3.708-3.727.592 0 1.46.236 6.468-2.169 6.468-7.198 0-1.853-1.854-3.037-1.834-1.203-4.693-1.203-4.851 0-9.328 2.426-4.477 2.406-6.606 6.192zm7.099 20.667q-2.011 1.006-3.648 1.006-1.026 0-1.026-.828 0-.434.454-2.465l3.786-19.09q.335-1.656.335-2.386 0-.69-.473-1.262 2.623-.986 3.648-.986 1.243 0 1.243 1.42 0 .335-.651 3.451l-3.49 17.532q-.375 1.834-.375 2.583 0 .414.197 1.025z"/></g><g fill="#fffdf7" aria-label="TR" style="-inkscape-font-specification:'Lucida Handwriting, Normal';white-space:pre;shape-inside:url(#c)" transform="matrix(2.35234 0 0 2.26352 -142.769 -182.628)"><path d="M86.706 95.65l-4.437 22.264q-.375 1.854-.375 2.425 0 .553.257 1.184-2.031 1.005-3.649 1.005-1.025 0-1.025-.828 0-.414.394-2.445l4.694-23.606h-2.741q-4.674 0-8.066.888.65-2.623 1.755-3.274 1.105-.65 4.832-.65h13.35q5.384 0 7.12-3.885.69 1.163.69 1.873 0 2.564-3.175 4.122-1.913.926-7.257.926z"/><path d="M78.683 109.135q-.809-.927-.809-2.208 0-3.274 5.542-6.114 5.56-2.84 11.91-2.84 9.782 0 9.782 6.232 0 3.017-2.11 5.147-2.09 2.11-7.316 4.398 4.713 10.748 8.124 10.748 1.795 0 3.846-2.525.099.493.099.69 0 1.657-1.953 3.452-1.952 1.774-3.766 1.774-4.615 0-9.84-12.581-1.046.296-1.894.296-.414 0-.77-.158.73-3.727 3.708-3.727.592 0 1.46.236 6.468-2.169 6.468-7.198 0-1.853-1.854-3.037-1.834-1.203-4.693-1.203-4.851 0-9.328 2.426-4.477 2.406-6.606 6.192zm7.099 20.667q-2.011 1.006-3.648 1.006-1.026 0-1.026-.828 0-.434.454-2.465l3.786-19.09q.335-1.656.335-2.386 0-.69-.473-1.262 2.623-.986 3.648-.986 1.243 0 1.243 1.42 0 .335-.651 3.451l-3.49 17.532q-.375 1.834-.375 2.583 0 .414.197 1.025z"/></g></g></svg>